<?xml version="1.0" encoding="UTF-8"?>
<svg width="959px" height="309px" viewBox="0 0 959 309" version="1.1" xmlns="http://www.w3.org/2000/svg" xmlns:xlink="http://www.w3.org/1999/xlink">
    <!-- Generator: Sketch 59.1 (86144) - https://sketch.com -->
    <title>rtlogovector</title>
    <desc>Created with Sketch.</desc>
    <defs>
        <linearGradient x1="93.1419575%" y1="49.932623%" x2="0%" y2="50.067377%" id="linearGradient-1">
            <stop stop-color="#B721FF" offset="0%"></stop>
            <stop stop-color="#21D4FD" offset="100%"></stop>
        </linearGradient>
        <linearGradient x1="100%" y1="50%" x2="2.54720406%" y2="50%" id="linearGradient-2">
            <stop stop-color="#6933FE" offset="0%"></stop>
            <stop stop-color="#337EEC" offset="100%"></stop>
        </linearGradient>
    </defs>
    <g id="Page-1" stroke="none" stroke-width="1" fill="none" fill-rule="evenodd">
        <g id="Artboard-Copy-17" transform="translate(-193.000000, -208.000000)">
            <g id="rtlogovector" transform="translate(193.000000, 208.000000)">
                <path d="M871,309 L835,309 L835,273 L843.587156,273 L843.587156,302.276596 L871,302.276596 L871,309 Z M906,279.468085 L889.183594,279.468085 L889.183594,309 L880.734375,309 L880.734375,279.468085 L864,279.468085 L864,273 L906,273 L906,279.468085 Z M959,290.87234 C959,302.957507 951.20787,309 935.623377,309 L914,309 L914,273 L937.794063,273 C944.083519,273 949.064917,274.33332 952.738404,277 C956.912822,280.120583 959,284.74465 959,290.87234 Z M951,290.070896 C951,282.690262 946.829829,279 938.489362,279 L923,279 L923,302 L934.319149,302 C939.709247,302 943.595733,301.370653 945.978723,300.11194 C949.326258,298.281085 951,294.934104 951,290.070896 Z" id="ltd" fill="#FAFAFA" fill-rule="nonzero"></path>
                <path d="M41,285.210402 L26.5859375,285.210402 L26.5859375,309 L19.34375,309 L19.34375,285.210402 L5,285.210402 L5,280 L41,280 L41,285.210402 Z M107,309 L75,309 L75,280 L106.651416,280 L106.651416,285.141844 L82.2505447,285.141844 L82.2505447,291.449173 L96.4727669,291.449173 L96.4727669,296.453901 L82.2505447,296.453901 L82.2505447,303.583924 L107,303.583924 L107,309 Z M175,302.144208 C175,304.886539 174.444335,306.714731 173.33299,307.628842 C172.221644,308.542952 170.259808,309 167.447423,309 L149.484536,309 C146.672151,309 144.721655,308.542952 143.63299,307.628842 C142.544324,306.714731 142,304.886539 142,302.144208 L142,286.855792 C142,284.113461 142.544324,282.285269 143.63299,281.371158 C144.721655,280.457048 146.672151,280 149.484536,280 L167.447423,280 C171.030946,280 173.253604,280.75413 174.115464,282.262411 C174.705158,283.267933 175,285.735993 175,289.666667 L167.923711,290.695035 L167.923711,285.347518 L149.008247,285.347518 L149.008247,303.446809 L167.923711,303.446809 L167.923711,297.276596 L175,298.716312 L175,302.144208 Z M249,309 L241.795841,309 L241.795841,296.79669 L219.274102,296.79669 L219.274102,309 L212,309 L212,280 L219.274102,280 L219.274102,291.037825 L241.795841,291.037825 L241.795841,280 L249,280 L249,309 Z M323,309 L318.112811,309 L293.470363,289.460993 L293.470363,309 L287,309 L287,280 L291.887189,280 L316.59847,299.264775 L316.59847,280 L323,280 L323,309 Z M399,302.144208 C399,304.886539 398.444247,306.714731 397.332724,307.628842 C396.221201,308.542952 394.229752,309 391.358318,309 L368.641682,309 C365.770248,309 363.778799,308.554378 362.667276,307.663121 C361.555753,306.771863 361,304.932244 361,302.144208 L361,286.855792 C361,284.067756 361.555753,282.228137 362.667276,281.336879 C363.778799,280.445622 365.770248,280 368.641682,280 L391.358318,280 C394.229752,280 396.221201,280.445622 397.332724,281.336879 C398.444247,282.228137 399,284.067756 399,286.855792 L399,302.144208 Z M392,303 L392,284 L369,284 L369,303 L392,303 Z M467,309 L437,309 L437,280 L444.155963,280 L444.155963,303.583924 L467,303.583924 L467,309 Z M538,302.144208 C538,304.886539 537.444247,306.714731 536.332724,307.628842 C535.221201,308.542952 533.229752,309 530.358318,309 L507.641682,309 C504.770248,309 502.778799,308.554378 501.667276,307.663121 C500.555753,306.771863 500,304.932244 500,302.144208 L500,286.855792 C500,284.067756 500.555753,282.228137 501.667276,281.336879 C502.778799,280.445622 504.770248,280 507.641682,280 L530.358318,280 C533.229752,280 535.221201,280.445622 536.332724,281.336879 C537.444247,282.228137 538,284.067756 538,286.855792 L538,302.144208 Z M530,303 L530,284 L507,284 L507,303 L530,303 Z M611,302.144208 C611,304.886539 610.437268,306.714731 609.311787,307.628842 C608.186306,308.542952 606.16985,309 603.262357,309 L581.737643,309 C578.83015,309 576.813694,308.542952 575.688213,307.628842 C574.562732,306.714731 574,304.886539 574,302.144208 L574,286.855792 C574,284.113461 574.562732,282.285269 575.688213,281.371158 C576.813694,280.457048 578.83015,280 581.737643,280 L603.262357,280 C606.310535,280 608.362162,280.479901 609.4173,281.439716 C610.472439,282.399532 611,284.341987 611,287.267139 L603.895437,288.432624 L603.895437,285.347518 L581.245247,285.347518 L581.245247,303.446809 L603.895437,303.446809 L603.895437,297.276596 L592.077947,297.276596 L592.077947,292.134752 L611,292.134752 L611,302.144208 Z M656,309 L649,309 L649,280 L656,280 L656,309 Z M726,309 L694,309 L694,280 L725.651416,280 L725.651416,285.141844 L701.250545,285.141844 L701.250545,291.449173 L715.472767,291.449173 L715.472767,296.453901 L701.250545,296.453901 L701.250545,303.583924 L726,303.583924 L726,309 Z M795,302.144208 C795,304.886539 794.451618,306.714731 793.354839,307.628842 C792.258059,308.542952 790.293025,309 787.459677,309 L768.608871,309 C765.501329,309 763.456322,308.485821 762.47379,307.457447 C761.491259,306.429073 761,304.383782 761,301.321513 L767.306452,300.156028 L767.306452,303.583924 L788.625,303.583924 L788.625,296.933806 L769.842742,296.933806 C767.009394,296.933806 765.06721,296.49961 764.016129,295.631206 C762.827951,294.67139 762.233871,292.820345 762.233871,290.078014 L762.233871,286.855792 C762.233871,284.113461 762.827951,282.262416 764.016129,281.3026 C765.06721,280.434196 767.009394,280 769.842742,280 L787.048387,280 C789.973133,280 791.972441,280.457048 793.046371,281.371158 C794.120301,282.285269 794.657258,284.159166 794.657258,286.992908 L788.556452,288.295508 L788.556452,285.210402 L768.608871,285.210402 L768.608871,291.312057 L787.459677,291.312057 C790.293025,291.312057 792.258059,291.757679 793.354839,292.648936 C794.451618,293.540194 795,295.379813 795,298.167849 L795,302.144208 Z" id="technologies" fill="url(#linearGradient-1)" fill-rule="nonzero"></path>
                <path d="M0,131 L92,251 L0,251 L0,131 Z M104.841929,1.30064329 C118.400139,1.30064329 155.15573,-5.78418003 183.315181,13.1169527 C198.82543,23.5277129 217.23351,46.7575522 214.778179,71.795257 C210.169461,118.791666 180.532738,141.383977 125.868012,139.572189 L125.868012,139.572189 L214.778179,251 L150.905578,251 L60.9009688,131.094274 L99.4557747,100.595428 L114.85519,125.5 L144.537514,30.1014988 L43.0456784,46.6442567 L68.7165198,62.2813488 L29.742472,94.4479452 L0,49.5998195 L0,1.30064329 L0,1.30064329 Z" id="R" fill="url(#linearGradient-2)"></path>
                <polygon id="T" fill="#FFFFFF" points="235 101 360 101 360 126.700568 312.513381 126.700568 312.513381 252 284.304346 252 284.304346 126.700568 235 126.700568"></polygon>
                <path d="M374,101 C424.04195,101 454.681623,101.496194 465.919021,102.488581 C482.775117,103.977162 499.301025,117.087303 503.222557,151.358579 C505.836912,174.206097 493.4024,190.291413 465.919021,199.614527 L465.919021,199.614527 L509,252 L477.446471,252 L432.74241,201.819371 L404.647508,201.819371 L404.647508,252 L374,252 Z M449.644788,126.000579 L405,126 L405,126 L405,176 L456.261789,176 C470.211022,171.278399 475.933054,161.764666 473.427885,147.458799 C469.782865,126.643764 450.781585,126.019313 449.644788,126.000579 Z" id="Combined-Shape" fill="#FFFFFF"></path>
                <path d="M605.729436,101 L673,252 L642.669818,252 L630.221157,225.429871 L551.725313,225.429871 L538.537801,252 L509,252 L575.057234,101 L605.729436,101 Z M591.015736,136 L564,196 L618,196 L591.015736,136 Z" id="Combined-Shape" fill="#FFFFFF"></path>
                <path d="M690,99.2121865 C714.142421,98.9292712 730.896524,98.9292712 740.262306,99.2121865 C753.352942,99.6076196 768.262749,98.9260292 792.59084,110.096087 C804.937038,115.76475 815.4935,131.630369 821.346889,149.979276 C828.977392,173.898991 823.866411,197.207021 813.291741,219.353845 C800.834047,245.444338 759.7368,255.896378 690,250.709964 L690,250.709964 Z M719,127.177837 L719,220.822163 C770.333333,229.160886 796,213.553498 796,174 C796,134.446502 770.333333,118.839114 719,127.177837 Z" id="Combined-Shape" fill="#FFFFFF"></path>
                <polygon id="e" fill="#FFFFFF" points="844 101 844 252 957 252 957 225.211152 872.507474 225.211152 872.507474 190.88425 953.185201 190.88425 953.185201 162.453229 872.507474 162.453229 872.507474 130.154817 957 130.154817 957 101"></polygon>
            </g>
        </g>
    </g>
</svg>